<?xml version="1.0" encoding="UTF-8"?><svg id="a" xmlns="http://www.w3.org/2000/svg" viewBox="0 0 286.18 106.23"><path d="M28.93,53.3v6.31c0,1.25.52,2.33,1.56,3.3,1.04.96,2.31,1.45,3.75,1.45,1.64,0,2.93-.64,3.89-1.95.96-1.33,1.44-3.32,1.44-5.93,0-5.27-1.76-7.88-5.31-7.88-1.44,0-2.71.48-3.75,1.45-1.04.96-1.56,2.05-1.56,3.3l-.02-.04ZM25.46,68.51c-.7,0-1.32-.26-1.84-.78-.52-.52-.78-1.15-.78-1.85v-29.5c0-.7.26-1.33.78-1.85.52-.52,1.14-.78,1.84-.78h.92c.7,0,1.32.26,1.84.78.52.52.78,1.15.78,1.85v10.43s0,.04.04.04.06,0,.1-.04c2-1.91,4.31-2.87,6.94-2.87,2.91,0,5.21,1.11,6.94,3.3,1.76,2.17,2.65,5.25,2.65,9.23s-.9,6.93-2.73,9.18c-1.82,2.23-4.11,3.34-6.86,3.34s-5.23-1.15-7.26-3.44c-.04-.04-.06-.04-.1-.04s-.04,0-.04.04l-.04.32c-.04.74-.3,1.37-.84,1.91-.5.5-1.1.74-1.84.74h-.5Z" style="fill:#231f20;"/><path d="M56.8,53.3v6.31c0,1.25.52,2.33,1.56,3.3,1.08.96,2.33,1.45,3.75,1.45,1.64,0,2.93-.66,3.89-1.99.96-1.33,1.44-3.3,1.44-5.89,0-5.27-1.76-7.88-5.31-7.88-1.42,0-2.67.48-3.75,1.45-1.04.96-1.56,2.05-1.56,3.3l-.02-.04ZM53.33,78.72c-.7,0-1.32-.26-1.84-.78-.52-.52-.78-1.15-.78-1.85v-29.06c0-.7.26-1.33.78-1.85.52-.52,1.14-.78,1.84-.78h.56c.74,0,1.36.26,1.9.78.52.5.8,1.11.84,1.85v.32s0,.04.04.04.06,0,.1-.04c1.1-1.25,2.23-2.11,3.33-2.65,1.1-.52,2.41-.78,3.89-.78,2.91,0,5.21,1.11,6.94,3.3,1.72,2.17,2.59,5.25,2.59,9.23s-.9,6.93-2.73,9.18c-1.78,2.23-4.05,3.34-6.8,3.34s-5.01-.96-7-2.91c-.04-.04-.06-.04-.1-.04s-.04,0-.04.04v10.03c0,.7-.26,1.33-.78,1.85-.5.52-1.1.78-1.8.78h-.92l-.02.02Z" style="fill:#231f20;"/><path d="M77.83,49.82c-.62,0-1.14-.22-1.56-.64-.44-.46-.64-1-.64-1.63s.22-1.15.64-1.57c.44-.44.96-.64,1.56-.64h2.45c.28,0,.42-.14.42-.42v-1.11c0-3.34.72-5.77,2.17-7.28,1.44-1.55,3.75-2.31,6.9-2.31,1.04,0,1.96.06,2.73.18.64.1,1.16.42,1.56.96.44.52.64,1.13.64,1.81,0,.56-.24,1-.7,1.35-.46.3-.96.42-1.52.32-.62-.06-1.06-.1-1.34-.1-1.56,0-2.65.34-3.25,1.03-.56.64-.84,1.93-.84,3.86v1.31c0,.28.14.42.42.42h4.53c.62,0,1.14.22,1.56.64.44.44.64.96.64,1.57s-.22,1.17-.64,1.63c-.44.44-.96.64-1.56.64h-4.53c-.28,0-.42.12-.42.36v15.68c0,.7-.26,1.33-.78,1.85-.52.52-1.14.78-1.84.78h-1.16c-.7,0-1.32-.26-1.84-.78-.5-.52-.74-1.15-.74-1.85v-15.68c0-.24-.14-.36-.42-.36h-2.45l.04-.02Z" style="fill:#231f20;"/><path d="M99.06,49.82c-.62,0-1.14-.22-1.58-.64-.44-.46-.64-1-.64-1.63s.22-1.15.64-1.57c.44-.44.96-.64,1.58-.64h2.23c.28,0,.42-.14.42-.42v-5.75c0-.7.24-1.33.74-1.85.52-.52,1.14-.78,1.84-.78h.92c.7,0,1.32.26,1.84.78.52.52.78,1.15.78,1.85v5.75c0,.28.14.42.42.42h5.27c.62,0,1.14.22,1.56.64.46.44.7.96.7,1.57s-.24,1.17-.7,1.63c-.44.44-.96.64-1.56.64h-5.27c-.28,0-.42.12-.42.36v9.37c0,2.01.22,3.32.64,3.9.44.58,1.32.88,2.69.88.74,0,1.3-.04,1.66-.1.62-.06,1.16.08,1.62.42.46.34.7.8.7,1.39,0,.68-.24,1.31-.7,1.85-.44.52-.96.82-1.62.88-1.36.12-2.37.18-3.05.18-2.99,0-5.09-.64-6.3-1.91-1.2-1.31-1.8-3.6-1.8-6.91v-9.97c0-.24-.14-.36-.42-.36h-2.23l.02.02Z" style="fill:#231f20;"/><path d="M122.83,68.51c-.7,0-1.32-.26-1.84-.78-.52-.52-.78-1.15-.78-1.85v-18.85c0-.7.26-1.33.78-1.85.52-.52,1.14-.78,1.84-.78h.92c.7,0,1.32.26,1.84.78.52.52.78,1.15.78,1.85v1.95s0,.04.04.04c.06,0,.1,0,.1-.04.9-1.25,2.07-2.25,3.51-3.01,1.44-.8,3.05-1.31,4.77-1.49.64-.06,1.2.16,1.66.64.46.46.7,1.02.7,1.67s-.24,1.21-.7,1.67c-.46.46-1.02.72-1.66.78-5.45.44-8.2,3.22-8.2,8.36v8.26c0,.7-.26,1.33-.78,1.85-.52.52-1.14.78-1.85.78h-1.16l.02.02Z" style="fill:#231f20;"/><path d="M151.1,56.92c-4.41,0-6.62,1.37-6.62,4.08,0,.98.28,1.79.84,2.41.58.62,1.32.92,2.23.92,1.76,0,3.17-.54,4.25-1.63,1.08-1.11,1.62-2.63,1.62-4.54v-.84c0-.28-.14-.42-.42-.42h-1.9v.02ZM145.87,68.98c-2.1,0-3.85-.68-5.23-2.05-1.36-1.39-2.05-3.2-2.05-5.39,0-2.69,1.02-4.78,3.05-6.27,2.06-1.49,5.21-2.23,9.44-2.23h1.9c.28,0,.42-.14.42-.42v-.36c0-1.43-.34-2.41-1.02-2.97-.68-.58-1.88-.88-3.61-.88s-3.99.32-6.58.96c-.56.16-1.06.06-1.52-.28-.46-.36-.7-.84-.7-1.45,0-.7.22-1.35.64-1.91.44-.58.98-.94,1.66-1.07,2.35-.52,4.55-.78,6.62-.78,3.95,0,6.72.7,8.28,2.13,1.56,1.43,2.37,3.92,2.37,7.48v12.34c0,.7-.26,1.33-.78,1.85-.5.52-1.1.78-1.8.78h-.5c-.74,0-1.36-.24-1.9-.74-.52-.52-.8-1.17-.84-1.91v-.64s0-.04-.04-.04c-.06,0-.1,0-.1.04-1.88,2.51-4.45,3.76-7.74,3.76l.04.06Z" style="fill:#231f20;"/><path d="M174.86,68.98c-3.83,0-6.78-1.05-8.84-3.16-2.07-2.13-3.11-5.27-3.11-9.37s.98-7.13,2.97-9.29c2.01-2.17,4.85-3.26,8.52-3.26,1.64,0,3.21.1,4.71.32.7.1,1.3.42,1.76.96.46.56.7,1.21.7,1.95,0,.62-.24,1.11-.74,1.49-.46.36-1,.5-1.62.36-1.2-.24-2.55-.36-4.03-.36-1.94,0-3.39.62-4.35,1.85-.96,1.25-1.44,3.22-1.44,5.93s.5,4.78,1.52,5.99,2.59,1.81,4.71,1.81c1.5,0,2.83-.14,3.93-.42.58-.16,1.1-.04,1.58.32.5.36.74.84.74,1.45,0,.74-.24,1.39-.7,1.95-.44.56-1,.9-1.7,1.03-1.56.28-3.11.42-4.63.42l.02.02Z" style="fill:#231f20;"/><path d="M195.35,48.25c-1.58,0-2.79.44-3.65,1.35-.84.86-1.36,2.27-1.56,4.22,0,.24.12.36.36.36h9.06c.24,0,.36-.12.36-.36-.12-3.72-1.64-5.57-4.59-5.57h.02ZM196.51,68.98c-4.05,0-7.16-1.05-9.34-3.16-2.17-2.13-3.25-5.27-3.25-9.37s.96-7.2,2.91-9.33c1.95-2.13,4.75-3.2,8.42-3.2,6.86,0,10.37,3.9,10.55,11.7.04.74-.24,1.37-.78,1.85-.56.5-1.2.74-1.95.74h-12.63c-.28,0-.38.14-.32.42.22,2.07.9,3.6,2.04,4.54,1.16.92,2.87,1.39,5.09,1.39,1.38,0,2.93-.24,4.63-.7.56-.16,1.06-.06,1.52.28.5.34.74.8.74,1.39,0,.7-.22,1.35-.64,1.91-.4.52-.94.84-1.62.96-1.72.36-3.51.56-5.37.56Z" style="fill:#231f20;"/><path d="M262.56,31c-.59-.44-1.33-.55-2.05-.6-4.36-.28-8.74,1.67-11.44,5.08-.43.54-.93,1.06-1.42.89-.5-.17-.55-.94-.54-1.59.06-4.38-2.25-8.8-5.87-11.25-.62-.42-1.63-.84-2.47-.65-.4.1-.73.33-.93.68-.79,1.38,1.02,2.69,1.79,3.24,2.39,1.73,3.94,4.64,4.05,7.59,0,.22,0,.43-.09.58-.16.25-.53.29-.9.33h-.09c-2.16.23-4.17,1.54-5.25,3.44-1.01,1.8-1.15,4.04-.38,5.95-6.64.62-13.49,1.76-18.83,5.59-1.83,1.31-3.11,2.75-3.8,4.28-.22.48-.38.96-.48,1.49-.45,2.28.43,4.78,2.25,6.37,1.75,1.51,4.28,2.12,6.61,1.58l.33-.08c.78-.2,1.59-.4,2.17,0,.47.32.65.95.81,1.61l3.63,14.65c.25,1.01.71,2.39,1.89,2.65.14.03.27.05.4.05.77,0,1.49-.5,2.12-.99l11.46-8.99c.69-.55,1.43-1.07,2.21-.97.79.1,1.33.78,1.89,1.51.14.18.28.36.42.52,1.67,2,4.48,2.93,7.01,2.33,1.29-.31,2.48-1,3.44-2.01,1.04-1.08,1.68-2.34,1.79-3.47.1-1.28-.01-2.69-.33-4.2-.52-2.56-1.61-5.14-3.23-7.69-2.23-3.5-5.16-6.48-8.02-9.36,1.82-1,3.13-2.84,3.47-4.88.35-2.17-.4-4.46-1.98-6-.27-.26-.58-.56-.54-.86.02-.16.15-.31.28-.45,2.06-2.32,5.25-3.63,8.35-3.41.95.07,2.4.18,2.91-.88.37-.73-.04-1.63-.64-2.08ZM242.31,51.39l.15.06.02-.02c2.33.9,4.04,3.14,4.68,6.17.06.24-.02.49-.21.66-.18.17-.44.23-.68.16-1.81-.51-3.75-1.13-5.76-1.84h-.07c-2.06-.76-3.9-1.48-5.6-2.21-.23-.09-.39-.3-.42-.55-.04-.25.06-.49.25-.64,2.46-1.99,5.25-2.63,7.64-1.79ZM229,54.32l-.05.05c-.32.48-.63,1-.93,1.5-.92,1.54-1.88,3.14-3.38,4.05-1.34.81-3.01,1.01-4.6.56-1.09-.32-1.97-.92-2.45-1.69s-.58-1.59-.3-2.43c.83-2.43,4.81-4.69,7.13-5.55,2.11-.79,4.37-1.26,6.55-1.72.69-.15,1.37-.29,2.05-.44l.18-.04c.99-.23,2.01-.46,3.01-.46.02,0,.05,0,.07.01-2.19.95-4.2,2.41-5.85,4.29-.56.63-1.05,1.27-1.43,1.87ZM242.89,70.77c-2.04,1.82-4.35,3.19-5.97,4.03-.79-.41-1.6-.77-2.4-1.05-.82-.29-1.68-.53-2.71-.74-.73-1.67-1.67-4.19-2.11-6.92-.02-.15.07-.24.11-.27.04-.03.15-.1.3-.03,2.07.88,4.16,1.71,6.23,2.45h.07c2.03.74,4.17,1.42,6.35,2.03.16.05.2.17.22.23.01.05.02.17-.09.27ZM247.22,63.21c-.12.79-.35,1.64-.69,2.6-.08.25-.19.52-.31.77-.23.5-.82.77-1.36.63h-.04c-2.34-.63-4.78-1.39-7.27-2.27l-.07-.02c-2.52-.9-4.9-1.85-7.05-2.83-.51-.23-.79-.81-.66-1.35.05-.24.13-.51.24-.78.33-.94.69-1.74,1.11-2.46.23-.43.75-.61,1.2-.4,2.24,1,4.6,1.93,7,2.78h.07c2.39.87,4.79,1.63,7.15,2.26.48.13.78.59.68,1.07ZM251.22,55.03l.08.11c.42.54.86,1.07,1.29,1.6,1.41,1.75,2.88,3.55,4.03,5.51.9,1.53,3.03,6.1,2.03,8.8-.31.83-.9,1.4-1.76,1.69-.87.3-1.92.22-2.97-.23-1.49-.64-2.69-1.88-3.21-3.33-.6-1.67-.33-3.52-.08-5.31.09-.58.17-1.16.22-1.74.08-.73.1-1.51.06-2.4-.1-2.5-.73-4.91-1.85-7.04.82.64,1.5,1.5,2.16,2.34ZM250.7,43.45c-.19,1.81-1.66,3.58-3.5,4.22l-.2.06c-1.77.55-3.61.22-4.96-.89-1.67-1.38-2.36-3.88-1.64-5.96.64-1.83,2.03-2.36,3.44-2.36.97,0,1.95.25,2.69.51,1.92.66,4.43,1.84,4.17,4.42ZM214.99,77.43h8.71c.97,0,1.76-.79,1.76-1.76s-.79-1.75-1.76-1.75h-8.71c-.97,0-1.76.79-1.76,1.75s.79,1.76,1.76,1.76ZM226.68,79.88h-20.12c-.97,0-1.75.79-1.75,1.76s.78,1.75,1.75,1.75h20.12c.96,0,1.75-.79,1.75-1.75s-.79-1.76-1.75-1.76Z" style="fill:#231f20;"/></svg>
